PathFileType	4	(x/y/z)	S01_P20_T24
DataRate	CameraRate	NumFrames	NumMarkers	Units	OrigDataRate	OrigDataStartFrame	OrigNumFrames
240	240	4	51	mm	240	101	400
Frame#	Time	Sternum			R.Acromium			L.Acromium			Top.Head			R.ASIS			L.ASIS			R.PSIS			L.PSIS			R.Great.Tro			L.Great.Tro			R.Iliac.Crest			L.Iliac.Crest			V.Sacral			R.Thigh.Upper.Post			R.Thigh.Lower.Ant			R.Thigh.Lower.Post			R.Thigh.Upper.Ant			R.Knee.Lat			R.Knee.Med			R.Shank.Upper.Post			R.Shank.Lower.Ant			R.Shank.Lower.Post			R.Shank.Upper.Ant			R.Ankle.Lat			R.Ankle.Med			R.Heel.Upper			R.Heel.Med			R.Heel.Lat			R.Toe.Lat			R.Toe.Med			R.Toe.Tip			L.Thigh.Upper.Post			L.Thigh.Lower.Ant			L.Thigh.Lower.Post			L.Thigh.Upper.Ant			L.Knee.Lat			L.Knee.Med			L.Shank.Upper.Post			L.Shank.Lower.Ant			L.Shank.Lower.Post			L.Shank.Upper.Ant			L.Ankle.Lat			L.Ankle.Med			L.Heel.Upper			L.Heel.Med			L.Heel.Lat			L.Toe.Lat			L.Toe.Med			L.Toe.Tip			Cervical.Spine			Back			
		X1	Y1	Z1	X2	Y2	Z2	X3	Y3	Z3	X4	Y4	Z4	X5	Y5	Z5	X6	Y6	Z6	X7	Y7	Z7	X8	Y8	Z8	X9	Y9	Z9	X10	Y10	Z10	X11	Y11	Z11	X12	Y12	Z12	X13	Y13	Z13	X14	Y14	Z14	X15	Y15	Z15	X16	Y16	Z16	X17	Y17	Z17	X18	Y18	Z18	X19	Y19	Z19	X20	Y20	Z20	X21	Y21	Z21	X22	Y22	Z22	X23	Y23	Z23	X24	Y24	Z24	X25	Y25	Z25	X26	Y26	Z26	X27	Y27	Z27	X28	Y28	Z28	X29	Y29	Z29	X30	Y30	Z30	X31	Y31	Z31	X32	Y32	Z32	X33	Y33	Z33	X34	Y34	Z34	X35	Y35	Z35	X36	Y36	Z36	X37	Y37	Z37	X38	Y38	Z38	X39	Y39	Z39	X40	Y40	Z40	X41	Y41	Z41	X42	Y42	Z42	X43	Y43	Z43	X44	Y44	Z44	X45	Y45	Z45	X46	Y46	Z46	X47	Y47	Z47	X48	Y48	Z48	X49	Y49	Z49	X50	Y50	Z50	X51	Y51	Z51	

101	0.41667	-767.51	1268.2	275.34	-889.65	1527	447.78	-911.06	1534.7	116.73	-864.41	1847	271.41	-822.3	1023	432.7	-821.78	1005.5	167.29	-1057.4	1068	344.26	-1061.8	1067.8	241.73	-891.91	982.87	521.37	-939.2	961.6	93.054	-907.28	1126.5	495.94	-926.28	1092.3	92.044	-1075.2	1032.6	291.86	-782.66	689.15	504.35	-688.48	654.42	477.94	-742.85	611.32	480.37	-726.42	734.87	498.2	-696.5	565.07	474.7	-688.37	569.65	329.45	-725.58	400.78	489.18	-652.62	329.14	446.68	-719.78	331.42	475.2	-662.69	399.39	466.73	-688.25	129.7	432.23	-651.16	146.52	343.35	-746.07	87.863	366.71	-721.53	64.898	337.18	-732.66	56.936	400.61	-551.32	76.217	473.77	-510.93	100.03	357.27	-459.54	129.16	418.88	-1029.8	699.82	119.76	-961.98	612.67	114.95	-1039.1	610.24	135.27	-960.73	706.57	98.397	-1013.5	514.18	124.66	-981.43	509.33	265.89	-1105.6	393.85	109.69	-1069.8	290.69	130.95	-1126.4	318.4	112.81	-1048.2	364.29	122.27	-1200.9	114.03	152.13	-1169.1	120.21	248.94	-1271.4	82.173	199.52	-1262.3	55.393	231.08	-1265.3	58.259	168.88	-1057.5	38.582	124.47	-1029	44.152	246.04	-967.44	53.205	193.21	-982.12	1587	283.96	-1073.8	1278.5	305.51
102	0.42083	-761.81	1266.5	275.59	-883.76	1525.4	448.25	-905.43	1533.2	117.21	-858.61	1845.6	271.95	-816.43	1021.4	432.91	-816.27	1004	167.42	-1051.6	1066.6	344.77	-1056.2	1066.6	242.24	-886	981.18	521.62	-934.03	960.45	93.313	-901.39	1124.9	496.33	-920.67	1091	92.422	-1069.6	1031.3	292.35	-777.21	687.35	504.08	-683.14	652.72	477.21	-737.44	609.59	479.84	-721.01	733.11	497.73	-690.52	563.93	473.98	-683.48	568.02	328.56	-717.04	399.25	489.32	-643.16	328.54	446.74	-710.25	329.9	475.58	-654.24	398.75	466.52	-675.55	128.21	433.19	-639.12	145.32	344.08	-733.16	85.268	368.07	-708.33	62.585	338.47	-719.05	54.649	402.01	-537.56	76.881	474.21	-498.06	101.02	357.49	-446.74	131.14	418.78	-1025.7	699.21	120	-958.24	611.74	115.11	-1035.3	609.66	135.5	-956.6	705.66	98.604	-1010.4	513.5	124.77	-978.06	508.41	266.09	-1103.2	393.82	109.91	-1068.2	290.39	131.05	-1124.7	318.52	113.02	-1046.1	363.84	122.38	-1200.6	114.5	152.4	-1168.5	120.53	249.18	-1271.2	82.909	199.91	-1262.1	56.044	231.42	-1265.2	58.992	169.22	-1057.5	38.558	124.53	-1028.9	44.073	246.07	-967.31	52.953	193.22	-976.41	1585.6	284.5	-1068	1277	306.05
103	0.425	-756.11	1264.8	275.86	-877.86	1523.8	448.74	-899.8	1531.7	117.71	-852.8	1844.1	272.51	-810.51	1019.9	433.12	-810.71	1002.4	167.55	-1045.8	1065.3	345.3	-1050.5	1065.4	242.78	-880.03	979.47	521.87	-928.81	959.3	93.584	-895.46	1123.2	496.74	-915.03	1089.7	92.819	-1063.9	1030.1	292.86	-771.65	685.58	503.85	-677.69	651.06	476.49	-731.92	607.88	479.36	-715.5	731.37	497.26	-684.48	562.78	473.3	-678.54	566.39	327.72	-708.68	397.78	489.45	-633.99	327.91	446.78	-700.98	328.42	475.93	-645.97	398.07	466.31	-663.4	126.82	434.08	-627.62	144.16	344.75	-720.85	82.863	369.36	-695.76	60.429	339.7	-706.09	52.539	403.34	-524.48	77.45	474.57	-485.83	101.86	357.64	-434.56	132.89	418.62	-1021.4	698.56	120.25	-954.38	610.79	115.27	-1031.5	609.04	135.74	-952.39	704.72	98.809	-1007.1	512.8	124.88	-974.53	507.47	266.29	-1100.8	393.81	110.13	-1066.6	290.09	131.15	-1122.8	318.66	113.23	-1044	363.38	122.49	-1200.2	115.04	152.68	-1168	120.9	249.41	-1271	83.739	200.29	-1261.8	56.783	231.76	-1265.1	59.803	169.57	-1057.5	38.535	124.59	-1028.8	43.999	246.09	-967.19	52.7	193.23	-970.71	1584.2	285.08	-1062.3	1275.5	306.62
104	0.42917	-750.39	1263.1	276.14	-871.94	1522.2	449.26	-894.16	1530.2	118.25	-846.98	1842.7	273.11	-804.54	1018.3	433.33	-805.11	1001	167.69	-1040	1063.9	345.85	-1044.8	1064.1	243.33	-874.01	977.72	522.12	-923.55	958.16	93.866	-889.51	1121.5	497.17	-909.36	1088.3	93.234	-1058.2	1028.8	293.38	-765.96	683.85	503.65	-672.13	649.44	475.77	-726.28	606.21	478.91	-709.88	729.68	496.79	-678.38	561.62	472.66	-673.52	564.78	326.93	-700.5	396.33	489.57	-625.11	327.24	446.8	-692	326.99	476.25	-637.9	397.34	466.11	-651.84	125.49	434.92	-616.67	143	345.36	-709.17	80.633	370.57	-683.86	58.413	340.85	-693.81	50.592	404.59	-512.09	77.898	474.87	-474.25	102.51	357.73	-423.01	134.36	418.4	-1017.1	697.89	120.52	-950.42	609.83	115.43	-1027.5	608.4	136	-948.07	703.77	99.011	-1003.7	512.08	124.99	-970.84	506.5	266.48	-1098.3	393.82	110.35	-1064.8	289.81	131.25	-1120.9	318.82	113.43	-1041.7	362.93	122.6	-1199.7	115.63	152.95	-1167.4	121.32	249.64	-1270.7	84.67	200.68	-1261.5	57.62	232.11	-1264.9	60.7	169.91	-1057.5	38.514	124.66	-1028.6	43.93	246.12	-967.06	52.447	193.25	-965	1582.7	285.68	-1056.5	1273.9	307.22
